<svg width="490" height="114" viewBox="0 0 490 114" fill="none" xmlns="http://www.w3.org/2000/svg">
<path opacity="0.5" d="M377.276 72.88C377.276 33.343 366.862 1.29221 354.015 1.29221C341.169 1.29221 330.754 33.343 330.754 72.88C330.754 95.0376 335.163 113 340.601 113C346.039 113 350.448 95.0376 350.448 72.88C350.448 33.343 340.033 1.29221 327.187 1.29221C314.34 1.29221 303.925 33.343 303.925 72.88C303.925 95.0376 308.334 113 313.772 113C319.211 113 323.619 95.0376 323.619 72.88C323.619 33.343 313.141 1.29221 300.215 1.29221C287.29 1.29221 276.812 33.343 276.812 72.88C276.812 95.0376 281.22 113 286.659 113C292.097 113 296.505 95.0376 296.505 72.88C296.505 33.343 286.091 1.29221 273.244 1.29221C260.397 1.29221 249.984 33.343 249.984 72.88C249.984 95.0376 254.391 113 259.83 113C265.268 113 269.677 95.0376 269.677 72.88C269.677 33.343 259.262 1.29221 246.415 1.29221C233.569 1.29221 223.155 33.343 223.155 72.88C223.155 95.0376 227.563 113 233.001 113C238.439 113 242.848 95.0376 242.848 72.88C242.848 33.343 232.433 1.29221 219.587 1.29221C206.741 1.29221 196.326 33.343 196.326 72.88C196.326 95.0376 200.735 113 206.173 113C211.61 113 216.019 95.0376 216.019 72.88C216.019 33.343 205.541 1.2922 192.616 1.2922C179.691 1.2922 169.212 33.343 169.212 72.88M488.739 1.29221C475.892 1.29221 465.478 33.343 465.478 72.88C465.478 95.0376 469.886 113 475.325 113C480.763 113 485.171 95.0376 485.171 72.88C485.171 33.343 474.757 1.29221 461.91 1.29221C449.064 1.29221 438.649 33.343 438.649 72.88C438.649 95.0376 443.058 113 448.496 113C453.934 113 458.343 95.0376 458.343 72.88C458.343 33.343 447.864 1.29221 434.939 1.29221C422.014 1.29221 411.535 33.343 411.535 72.88C411.535 95.0376 415.944 113 421.382 113C426.82 113 431.228 95.0376 431.228 72.88C431.228 33.343 420.814 1.29221 407.968 1.29221C395.121 1.29221 384.707 33.343 384.707 72.88C384.707 95.0376 389.115 113 394.553 113C399.992 113 404.4 95.0376 404.4 72.88C404.4 33.343 393.986 1.29221 381.139 1.29221C368.292 1.29221 357.878 33.343 357.878 72.88C357.878 95.0376 362.287 113 367.724 113C373.163 113 377.572 95.0376 377.572 72.88C377.572 33.343 367.157 1.29221 354.311 1.29221C341.464 1.29221 331.05 33.343 331.049 72.88C331.049 95.0376 335.458 113 340.896 113C346.334 113 350.743 95.0376 350.743 72.88C350.743 33.343 340.265 1.2922 327.34 1.2922C314.414 1.2922 303.936 33.343 303.936 72.88M81.0641 72.5878C81.0641 33.0508 70.6498 1.00001 57.8032 1.00001C44.9565 1.00001 34.5422 33.0508 34.5422 72.5878C34.5422 94.7454 38.9507 112.708 44.3888 112.708C49.827 112.708 54.2355 94.7454 54.2355 72.5878C54.2355 33.0508 43.8213 1.00001 30.9746 1.00001C18.1279 1.00001 7.71325 33.0508 7.71325 72.5878C7.71325 94.7454 12.1219 112.708 17.5603 112.708C22.9984 112.708 27.407 94.7454 27.407 72.5878C27.407 33.0508 16.9287 1.00001 4.00333 1C-8.92204 1 -19.4006 33.0508 -19.4006 72.5878C-19.4006 94.7454 -14.9919 112.708 -9.5536 112.708C-4.11526 112.708 0.292579 94.7454 0.29258 72.5878C0.292581 33.0508 -10.1213 1 -22.968 1C-35.8148 1 -46.2286 33.0508 -46.2286 72.5878C-46.2286 94.7454 -41.8208 112.708 -36.3824 112.708C-30.9441 112.708 -26.5354 94.7454 -26.5354 72.5878C-26.5354 33.0508 -36.9501 1 -49.7968 1C-62.6436 1 -73.0574 33.0508 -73.0574 72.5878C-73.0574 94.7454 -68.6488 112.708 -63.2113 112.708C-57.7729 112.708 -53.3642 94.7454 -53.3642 72.5878C-53.3642 33.0508 -63.7789 1 -76.6248 1C-89.4716 1 -99.8863 33.0508 -99.8863 72.5878C-99.8863 94.7454 -95.4776 112.708 -90.0393 112.708C-84.6017 112.708 -80.1931 94.7454 -80.1931 72.5878C-80.1931 33.0508 -90.6708 1 -103.596 1M215.788 72.5878C215.788 33.0508 205.373 1.00001 192.527 1.00001C179.68 1.00001 169.266 33.0508 169.266 72.5878C169.266 94.7454 173.674 112.708 179.112 112.708C184.551 112.708 188.959 94.7454 188.959 72.5878C188.959 33.0508 178.545 1.00001 165.698 1.00001C152.851 1.00001 142.437 33.0508 142.437 72.5878C142.437 94.7454 146.846 112.708 152.284 112.708C157.722 112.708 162.131 94.7454 162.131 72.5878C162.131 33.0508 151.652 1.00001 138.727 1C125.802 1 115.323 33.0508 115.323 72.5878C115.323 94.7454 119.732 112.708 125.17 112.708C130.608 112.708 135.016 94.7454 135.016 72.5878C135.016 33.0508 124.602 1 111.756 1C98.9088 1 88.495 33.0508 88.495 72.5878C88.495 94.7454 92.9028 112.708 98.3411 112.708C103.779 112.708 108.188 94.7454 108.188 72.5878C108.188 33.0508 97.7735 1 84.9268 1C72.08 1 61.6662 33.0508 61.6662 72.5878C61.6662 94.7454 66.0748 112.708 71.5123 112.708C76.9507 112.708 81.3593 94.7454 81.3593 72.5878C81.3593 33.0508 70.9447 1 58.0988 1C45.252 1 34.8373 33.0508 34.8373 72.5878C34.8373 94.7454 39.246 112.708 44.6843 112.708C50.1219 112.708 54.5305 94.7454 54.5305 72.5878C54.5305 33.0508 44.0528 1 31.1274 1C18.202 0.999999 7.72344 33.0508 7.72344 72.5878" stroke="#A1A6B4" stroke-linecap="round"/>
</svg>
